name ./resultDataOpenSim/trcMotMarkerGrf/sub10/grf-05-08.mot
datacolumns 19
datarows 25
range 1.58400000 1.68000000
endheader

                time	     ground_force_vx	     ground_force_vy	     ground_force_vz	     ground_force_px	     ground_force_py	     ground_force_pz	   l_ground_force_vx	   l_ground_force_vy	   l_ground_force_vz	   l_ground_force_px	   l_ground_force_py	   l_ground_force_pz	     ground_torque_x	     ground_torque_y	     ground_torque_z	   l_ground_torque_x	   l_ground_torque_y	   l_ground_torque_z	
          1.58400000	        -37.70044195	        452.55239684	        -26.16631852	          0.89336425	          0.00000000	          0.03734290	          0.00000000	          0.00000000	          0.00000000	          0.00000000	          0.00000000	          0.00000000	          0.00000000	          0.53095857	          0.00000000	          0.00000000	          0.00000000	          0.00000000	
          1.58800000	        -35.60359380	        440.03638360	        -26.83288601	          0.89426611	          0.00000000	          0.03789622	          0.00000000	          0.00000000	          0.00000000	          0.00000000	          0.00000000	          0.00000000	          0.00000000	          0.53956730	          0.00000000	          0.00000000	          0.00000000	          0.00000000	
          1.59200000	        -34.21338759	        428.05199908	        -27.48698314	          0.89518158	          0.00000000	          0.03842165	          0.00000000	          0.00000000	          0.00000000	          0.00000000	          0.00000000	          0.00000000	          0.00000000	          0.55236911	          0.00000000	          0.00000000	          0.00000000	          0.00000000	
          1.59600000	        -33.17005812	        416.63317487	        -28.01888039	          0.89606962	          0.00000000	          0.03891576	          0.00000000	          0.00000000	          0.00000000	          0.00000000	          0.00000000	          0.00000000	          0.00000000	          0.56245174	          0.00000000	          0.00000000	          0.00000000	          0.00000000	
          1.60000000	        -32.05921379	        405.81657718	        -28.34556215	          0.89687105	          0.00000000	          0.03937180	          0.00000000	          0.00000000	          0.00000000	          0.00000000	          0.00000000	          0.00000000	          0.00000000	          0.56335501	          0.00000000	          0.00000000	          0.00000000	          0.00000000	
          1.60400000	        -30.52567458	        395.60904181	        -28.42549714	          0.89752432	          0.00000000	          0.03978272	          0.00000000	          0.00000000	          0.00000000	          0.00000000	          0.00000000	          0.00000000	          0.00000000	          0.55141700	          0.00000000	          0.00000000	          0.00000000	          0.00000000	
          1.60800000	        -28.37294258	        385.98261867	        -28.26730185	          0.89801123	          0.00000000	          0.04015311	          0.00000000	          0.00000000	          0.00000000	          0.00000000	          0.00000000	          0.00000000	          0.00000000	          0.52709171	          0.00000000	          0.00000000	          0.00000000	          0.00000000	
          1.61200000	        -25.61323927	        376.89832363	        -27.93099274	          0.89832882	          0.00000000	          0.04047909	          0.00000000	          0.00000000	          0.00000000	          0.00000000	          0.00000000	          0.00000000	          0.00000000	          0.49479557	          0.00000000	          0.00000000	          0.00000000	          0.00000000	
          1.61600000	        -22.45063645	        368.33579710	        -27.51683883	          0.89851053	          0.00000000	          0.04075952	          0.00000000	          0.00000000	          0.00000000	          0.00000000	          0.00000000	          0.00000000	          0.00000000	          0.46162744	          0.00000000	          0.00000000	          0.00000000	          0.00000000	
          1.62000000	        -19.20915567	        360.30186350	        -27.14080633	          0.89861526	          0.00000000	          0.04099911	          0.00000000	          0.00000000	          0.00000000	          0.00000000	          0.00000000	          0.00000000	          0.00000000	          0.43568293	          0.00000000	          0.00000000	          0.00000000	          0.00000000	
          1.62400000	        -16.23615207	        352.81487792	        -26.90463944	          0.89869517	          0.00000000	          0.04120390	          0.00000000	          0.00000000	          0.00000000	          0.00000000	          0.00000000	          0.00000000	          0.00000000	          0.42450307	          0.00000000	          0.00000000	          0.00000000	          0.00000000	
          1.62800000	        -13.80946610	        345.89553509	        -26.86871193	          0.89878684	          0.00000000	          0.04136951	          0.00000000	          0.00000000	          0.00000000	          0.00000000	          0.00000000	          0.00000000	          0.00000000	          0.43381950	          0.00000000	          0.00000000	          0.00000000	          0.00000000	
          1.63200000	        -12.07163452	        339.56998990	        -27.03297254	          0.89891295	          0.00000000	          0.04147796	          0.00000000	          0.00000000	          0.00000000	          0.00000000	          0.00000000	          0.00000000	          0.00000000	          0.46658742	          0.00000000	          0.00000000	          0.00000000	          0.00000000	
          1.63600000	        -11.00258474	        333.86256543	        -27.33327670	          0.89909453	          0.00000000	          0.04151075	          0.00000000	          0.00000000	          0.00000000	          0.00000000	          0.00000000	          0.00000000	          0.00000000	          0.52240706	          0.00000000	          0.00000000	          0.00000000	          0.00000000	
          1.64000000	        -10.42909165	        328.78055229	        -27.65623861	          0.89934103	          0.00000000	          0.04146143	          0.00000000	          0.00000000	          0.00000000	          0.00000000	          0.00000000	          0.00000000	          0.00000000	          0.59757383	          0.00000000	          0.00000000	          0.00000000	          0.00000000	
          1.64400000	        -10.06970622	        324.30768699	        -27.86798370	          0.89962486	          0.00000000	          0.04133664	          0.00000000	          0.00000000	          0.00000000	          0.00000000	          0.00000000	          0.00000000	          0.00000000	          0.68593223	          0.00000000	          0.00000000	          0.00000000	          0.00000000	
          1.64800000	         -9.61043371	        320.40941047	        -27.84813189	          0.89989011	          0.00000000	          0.04114976	          0.00000000	          0.00000000	          0.00000000	          0.00000000	          0.00000000	          0.00000000	          0.00000000	          0.78044008	          0.00000000	          0.00000000	          0.00000000	          0.00000000	
          1.65200000	         -8.79256813	        317.04444107	        -27.51811466	          0.90007994	          0.00000000	          0.04091555	          0.00000000	          0.00000000	          0.00000000	          0.00000000	          0.00000000	          0.00000000	          0.00000000	          0.87502636	          0.00000000	          0.00000000	          0.00000000	          0.00000000	
          1.65600000	         -7.48414621	        314.17666447	        -26.85780092	          0.90014693	          0.00000000	          0.04064945	          0.00000000	          0.00000000	          0.00000000	          0.00000000	          0.00000000	          0.00000000	          0.00000000	          0.96613331	          0.00000000	          0.00000000	          0.00000000	          0.00000000	
          1.66000000	         -5.71141843	        311.78816401	        -25.91171402	          0.90007015	          0.00000000	          0.04036465	          0.00000000	          0.00000000	          0.00000000	          0.00000000	          0.00000000	          0.00000000	          0.00000000	          1.05341226	          0.00000000	          0.00000000	          0.00000000	          0.00000000	
          1.66400000	         -3.64467280	        309.89485193	        -24.78508275	          0.89987230	          0.00000000	          0.04006573	          0.00000000	          0.00000000	          0.00000000	          0.00000000	          0.00000000	          0.00000000	          0.00000000	          1.13938108	          0.00000000	          0.00000000	          0.00000000	          0.00000000	
          1.66800000	         -1.54591780	        308.55165044	        -23.62629225	          0.89961168	          0.00000000	          0.03974962	          0.00000000	          0.00000000	          0.00000000	          0.00000000	          0.00000000	          0.00000000	          0.00000000	          1.22827198	          0.00000000	          0.00000000	          0.00000000	          0.00000000	
          1.67200000	          0.30810190	        307.83775422	        -22.59477540	          0.89937754	          0.00000000	          0.03941110	          0.00000000	          0.00000000	          0.00000000	          0.00000000	          0.00000000	          0.00000000	          0.00000000	          1.32457365	          0.00000000	          0.00000000	          0.00000000	          0.00000000	
          1.67600000	          1.70642372	        307.82942628	        -21.82259682	          0.89927178	          0.00000000	          0.03904102	          0.00000000	          0.00000000	          0.00000000	          0.00000000	          0.00000000	          0.00000000	          0.00000000	          1.43177363	          0.00000000	          0.00000000	          0.00000000	          0.00000000	
          1.68000000	          2.56295374	        308.56627197	        -21.38368214	          0.89934778	          0.00000000	          0.03863287	          0.00000000	          0.00000000	          0.00000000	          0.00000000	          0.00000000	          0.00000000	          0.00000000	          1.55159467	          0.00000000	          0.00000000	          0.00000000	          0.00000000	
